<svg xmlns="http://www.w3.org/2000/svg" width="96" height="96"><path d="M0 0 C1.39895508 -0.0309375 1.39895508 -0.0309375 2.82617188 -0.0625 C3.71755859 -0.06765625 4.60894531 -0.0728125 5.52734375 -0.078125 C6.75892212 -0.09214355 6.75892212 -0.09214355 8.01538086 -0.10644531 C8.69093018 0.01118164 9.36647949 0.12880859 10.0625 0.25 C12.37544553 3.71941829 12.64028029 6.01650915 13.1875 10.125 C13.35507812 11.33929688 13.52265625 12.55359375 13.6953125 13.8046875 C13.81648438 14.94164062 13.93765625 16.07859375 14.0625 17.25 C14.17335938 18.12269531 14.28421875 18.99539062 14.3984375 19.89453125 C13.90277531 23.36993008 12.0913384 24.70927538 9.5625 27.0625 C8.30953125 28.24779297 8.30953125 28.24779297 7.03125 29.45703125 C6.3815625 30.04871094 5.731875 30.64039062 5.0625 31.25 C11.11812447 42.62507498 18.68742502 50.19437553 30.0625 56.25 C30.60777344 55.58871094 31.15304688 54.92742187 31.71484375 54.24609375 C37.74949245 47.48935033 37.74949245 47.48935033 41.3125 46.83984375 C43.62780827 47.14166072 45.80102096 47.67236011 48.0625 48.25 C49.85209967 48.41932166 51.64407584 48.56516192 53.4375 48.6875 C56.95981556 48.95027592 57.99553496 49.20535664 61.0625 51.25 C61.41894531 53.29711914 61.41894531 53.29711914 61.390625 55.78515625 C61.38546875 56.67654297 61.3803125 57.56792969 61.375 58.48632812 C61.354375 59.41896484 61.33375 60.35160156 61.3125 61.3125 C61.30734375 62.24900391 61.3021875 63.18550781 61.296875 64.15039062 C61.21640339 71.09609661 61.21640339 71.09609661 60.0625 72.25 C42.05633801 73.73630025 26.60089291 68.03217022 12.3125 57.0625 C0.38319451 46.8001717 -8.51538979 31.93213728 -10.9375 16.25 C-11.20316799 11.23182688 -11.27821853 6.26904602 -10.9375 1.25 C-8.62806288 -1.05943712 -3.10101819 0.01707374 0 0 Z " fill="#000000" transform="translate(22.9375,11.75)"></path></svg>